# xmcd
#
# Track frame offsets: 
#        150
#        28292
#        47052
#        67840
#        86996
#        109587
#        134319
#        158613
#        175634
#        192633
#        232689
#
# Disc length: 3378 seconds
#
# Revision: 0
# Processed by: cddbd v1.5.2PL0 Copyright (c) Steve Scherf et al.
# Submitted via: ExactAudioCopyFreeDBPlugin 1.0
#
DISCID=890d300b
DTITLE=Troubadour 77 - Selma Avenue
DYEAR=2017
DGENRE=Americana
TTITLE0=Selma Avenue
TTITLE1=1977
TTITLE2=I Got a Gun
TTITLE3=Steal Forever
TTITLE4=Open Home
TTITLE5=Freedom Rider
TTITLE6=The River of No Return
TTITLE7=Drive
TTITLE8=Troubadour
TTITLE9=When We're Gone
TTITLE10=Half the Heart
EXTD=
EXTT0=
EXTT1=
EXTT2=
EXTT3=
EXTT4=
EXTT5=
EXTT6=
EXTT7=
EXTT8=
EXTT9=
EXTT10=
PLAYORDER=
